<?xml version="1.0" encoding="UTF-8" standalone="no"?>
<svg
   xmlns:dc="http://purl.org/dc/elements/1.1/"
   xmlns:cc="http://creativecommons.org/ns#"
   xmlns:rdf="http://www.w3.org/1999/02/22-rdf-syntax-ns#"
   xmlns:svg="http://www.w3.org/2000/svg"
   xmlns="http://www.w3.org/2000/svg"
   xmlns:sodipodi="http://sodipodi.sourceforge.net/DTD/sodipodi-0.dtd"
   xmlns:inkscape="http://www.inkscape.org/namespaces/inkscape"
   version="1.1"
   width="82.460716"
   height="113.38583"
   id="svg3206"
   viewBox="0 0 82.460712 113.38583"
   sodipodi:docname="3.svg"
   inkscape:version="0.92.4 (5da689c313, 2019-01-14)">
  <metadata
     id="metadata3212">
    <rdf:RDF>
      <cc:Work
         rdf:about="">
        <dc:format>image/svg+xml</dc:format>
        <dc:type
           rdf:resource="http://purl.org/dc/dcmitype/StillImage" />
        <dc:title></dc:title>
      </cc:Work>
    </rdf:RDF>
  </metadata>
  <defs
     id="defs3210" />
  <sodipodi:namedview
     pagecolor="#ffffff"
     bordercolor="#666666"
     borderopacity="1"
     objecttolerance="10"
     gridtolerance="10"
     guidetolerance="10"
     inkscape:pageopacity="0"
     inkscape:pageshadow="2"
     inkscape:window-width="1600"
     inkscape:window-height="838"
     id="namedview3208"
     showgrid="false"
     showguides="true"
     inkscape:zoom="0.80488811"
     inkscape:cx="344.44127"
     inkscape:cy="190.96384"
     inkscape:window-x="-8"
     inkscape:window-y="-8"
     inkscape:window-maximized="1"
     inkscape:current-layer="svg3206"
     inkscape:measure-start="1115.17,301.786"
     inkscape:measure-end="1114.69,275.584"
     inkscape:guide-bbox="true" />
  <g
     aria-label="8"
     style="font-style:normal;font-variant:normal;font-weight:normal;font-stretch:normal;font-size:155.11968994px;line-height:1.25;font-family:Arial;-inkscape-font-specification:Arial;letter-spacing:0px;word-spacing:0px;fill:none;fill-opacity:1;stroke:#0097ff;stroke-width:1.28181183;stroke-miterlimit:4;stroke-dasharray:none;stroke-opacity:1"
     id="text998"
     transform="matrix(1.0589545,0,0,1,-750.08935,-391.89701)" />
  <g
     aria-label="P"
     transform="matrix(0.9315906,0,0,1.0734329,-597.52119,-393.4502)"
     style="font-style:normal;font-variant:normal;font-weight:normal;font-stretch:normal;font-size:172.15777588px;line-height:1.25;font-family:'Arial Narrow Special G1';-inkscape-font-specification:'Arial Narrow Special G1';letter-spacing:0px;word-spacing:0px;fill:#ff0000;fill-opacity:1;stroke:none;stroke-width:12.91183376"
     id="text1321" />
  <path
     d="m 74.401599,60.047019 c 2.2626,2.02222 4.05368,4.38999 5.39708,7.07825 1.31969,2.71291 2.00325,6.289 2.00325,10.77757 0,5.05602 -0.96624,9.76651 -2.87513,14.1565 -1.90903,4.38999 -4.85505,8.138731 -8.8145,11.271101 -3.86484,3.03341 -8.41363,5.35175 -13.622,6.97955 -5.23196,1.60315 -11.57144,2.41705 -19.01881,2.41705 -8.53144,0 -15.83755,-0.69055 -21.91793,-2.09655 C 9.4497086,109.22488 4.4768386,107.67114 0.65878856,105.92 V 82.292829 H 3.3457386 c 3.95919,2.51576 8.6963004,4.68597 14.1874704,6.51119 5.51491,1.82507 10.53482,2.73754 15.10681,2.73754 2.6631,0 5.56207,-0.22219 8.69629,-0.6659 3.13463,-0.46876 5.77412,-1.47993 7.94251,-3.00903 1.69684,-1.20845 3.06357,-2.66362 4.07726,-4.36508 0.9897,-1.72637 1.50801,-4.19284 1.50801,-7.42366 0,-3.10747 -0.68317,-5.54916 -2.07376,-7.25089 -1.39059,-1.70173 -3.20526,-2.93483 -5.444,-3.65003 -2.2626,-0.7646 -4.97274,-1.18381 -8.15454,-1.25801 -3.18166,-0.074 -6.12743,-0.12334 -8.83796,-0.12334 H 3.6284186 c 0,-9.45596 0,-20.49261 0,-32.99887 V 7.4411986 c 3.77073,-1.57852 8.9084704,-3.10774 15.3896004,-4.58728 6.50474,-1.45529 13.0801,-2.19513004 19.74943,-2.19513004 6.50473,0 12.18462,0.59197004 17.06314,1.77566004 4.87838,1.15904 8.90847,2.73755 12.09014,4.73514 3.7706,2.34311 6.57536,5.2040204 8.41361,8.5828304 1.83826,3.37881 2.75732,7.32482 2.75732,11.86281 0,5.96836 -1.76749,11.2956 -5.30259,16.00636 -3.5587,4.68598 -8.22517,7.69473 -14.02288,8.97725 v 1.01119 c 2.35682,0.34513 4.83147,1.01117 7.44738,2.02222 2.63964,1.01119 5.01992,2.49111 7.18803,4.41477 z"
     style="fill:none;stroke:#000200;stroke-width:1.31757712;stroke-linecap:butt;stroke-linejoin:miter;stroke-dasharray:none"
     id="path3174"
     inkscape:connector-curvature="0"
     sodipodi:nodetypes="ccscccscccccscccssccsccccscccsccccc" />
  <text
     x="-74.053665"
     y="292.61603"
     id="text3176" />
  <g
     aria-label="8"
     style="font-style:normal;font-variant:normal;font-weight:normal;font-stretch:normal;font-size:155.11968994px;line-height:1.25;font-family:Arial;-inkscape-font-specification:Arial;letter-spacing:0px;word-spacing:0px;fill:none;fill-opacity:1;stroke:#0097ff;stroke-width:1.28181183;stroke-miterlimit:4;stroke-dasharray:none;stroke-opacity:1"
     id="text998-7"
     transform="matrix(1.0589545,0,0,1,-746.49211,247.169)" />
  <g
     aria-label="P"
     transform="matrix(0.9315906,0,0,1.0734329,-593.92396,245.61581)"
     style="font-style:normal;font-variant:normal;font-weight:normal;font-stretch:normal;font-size:172.15777588px;line-height:1.25;font-family:'Arial Narrow Special G1';-inkscape-font-specification:'Arial Narrow Special G1';letter-spacing:0px;word-spacing:0px;fill:#ff0000;fill-opacity:1;stroke:none;stroke-width:12.91183376"
     id="text1321-9" />
  <text
     x="-70.456436"
     y="931.68213"
     id="text3176-1" />
</svg>
