<?xml version="1.0" encoding="UTF-8" standalone="no"?>
<svg
   xmlns:dc="http://purl.org/dc/elements/1.1/"
   xmlns:cc="http://creativecommons.org/ns#"
   xmlns:rdf="http://www.w3.org/1999/02/22-rdf-syntax-ns#"
   xmlns:svg="http://www.w3.org/2000/svg"
   xmlns="http://www.w3.org/2000/svg"
   xmlns:sodipodi="http://sodipodi.sourceforge.net/DTD/sodipodi-0.dtd"
   xmlns:inkscape="http://www.inkscape.org/namespaces/inkscape"
   version="1.1"
   width="77.984245"
   height="113.38583"
   id="svg3206"
   viewBox="0 0 77.984241 113.38583"
   sodipodi:docname="8.svg"
   inkscape:version="0.92.4 (5da689c313, 2019-01-14)">
  <metadata
     id="metadata3212">
    <rdf:RDF>
      <cc:Work
         rdf:about="">
        <dc:format>image/svg+xml</dc:format>
        <dc:type
           rdf:resource="http://purl.org/dc/dcmitype/StillImage" />
        <dc:title></dc:title>
      </cc:Work>
    </rdf:RDF>
  </metadata>
  <defs
     id="defs3210" />
  <sodipodi:namedview
     pagecolor="#ffffff"
     bordercolor="#666666"
     borderopacity="1"
     objecttolerance="10"
     gridtolerance="10"
     guidetolerance="10"
     inkscape:pageopacity="0"
     inkscape:pageshadow="2"
     inkscape:window-width="1600"
     inkscape:window-height="838"
     id="namedview3208"
     showgrid="false"
     showguides="true"
     inkscape:zoom="0.80488811"
     inkscape:cx="49.483028"
     inkscape:cy="190.96384"
     inkscape:window-x="-8"
     inkscape:window-y="-8"
     inkscape:window-maximized="1"
     inkscape:current-layer="svg3206"
     inkscape:measure-start="1115.17,301.786"
     inkscape:measure-end="1114.69,275.584"
     inkscape:guide-bbox="true" />
  <g
     aria-label="8"
     style="font-style:normal;font-variant:normal;font-weight:normal;font-stretch:normal;font-size:155.11968994px;line-height:1.25;font-family:Arial;-inkscape-font-specification:Arial;letter-spacing:0px;word-spacing:0px;fill:none;fill-opacity:1;stroke:#0097ff;stroke-width:1.28181183;stroke-miterlimit:4;stroke-dasharray:none;stroke-opacity:1"
     id="text998"
     transform="matrix(1.0589545,0,0,1,-1309.8784,-391.89702)" />
  <g
     aria-label="P"
     transform="matrix(0.9315906,0,0,1.0734329,-1157.3102,-393.45021)"
     style="font-style:normal;font-variant:normal;font-weight:normal;font-stretch:normal;font-size:172.15777588px;line-height:1.25;font-family:'Arial Narrow Special G1';-inkscape-font-specification:'Arial Narrow Special G1';letter-spacing:0px;word-spacing:0px;fill:#ff0000;fill-opacity:1;stroke:none;stroke-width:12.91183376"
     id="text1321" />
  <text
     x="-633.84271"
     y="292.61603"
     id="text3176" />
  <path
     id="path1003-0"
     style="opacity:1;fill:none;fill-opacity:1;fill-rule:nonzero;stroke:#000000;stroke-width:1.59134793;stroke-linecap:round;stroke-linejoin:miter;stroke-miterlimit:4;stroke-dasharray:none;stroke-opacity:1;paint-order:markers fill stroke"
     d="m 21.590174,51.353354 c -5.9048,-2.04122 -10.2806,-4.9537 -13.1276,-8.73743 -2.8469,-3.78374 -4.2704,-8.31427 -4.2704,-13.59159 0,-7.96577 4.3007,-14.66198 10.3637,-20.08865 6.0629,-5.42668 14.1292,-8.14001003 24.1988,-8.14001003 10.1226,0 18.2679,2.78801003 24.4363,8.36404003 6.1684,5.52625 10.3103,12.27225 10.3103,20.23801 0,5.07818 -1.4235,9.50913 -4.2704,13.29287 -2.7942,3.73395 -7.0646,6.62154 -12.8112,8.66276 7.1173,2.19059 11.4635,5.72539 15.1541,10.60442 3.7431,4.87903 5.6148,10.704 5.6148,17.4749 0,9.35977 -3.506,17.22595 -10.5179,23.598556 -7.0119,6.37261 -16.2382,9.55892 -27.6786,9.55892 -11.4404,0 -20.6667,-3.18631 -27.6785,-9.55892 -7.012,-6.422386 -10.51790003,-14.413036 -10.51790003,-23.971956 0,-7.1194 1.89800003,-13.06883 5.69380003,-17.84829 3.8486,-4.82924 8.036,-8.11512 15.1007,-9.85763 z"
     inkscape:connector-curvature="0"
     sodipodi:nodetypes="ccscscscccssscscc" />
  <g
     aria-label="8"
     style="font-style:normal;font-variant:normal;font-weight:normal;font-stretch:normal;font-size:155.11968994px;line-height:1.25;font-family:Arial;-inkscape-font-specification:Arial;letter-spacing:0px;word-spacing:0px;fill:none;fill-opacity:1;stroke:#0097ff;stroke-width:1.28181183;stroke-miterlimit:4;stroke-dasharray:none;stroke-opacity:1"
     id="text998-7"
     transform="matrix(1.0589545,0,0,1,-1306.2811,247.16899)" />
  <g
     aria-label="P"
     transform="matrix(0.9315906,0,0,1.0734329,-1153.713,245.6158)"
     style="font-style:normal;font-variant:normal;font-weight:normal;font-stretch:normal;font-size:172.15777588px;line-height:1.25;font-family:'Arial Narrow Special G1';-inkscape-font-specification:'Arial Narrow Special G1';letter-spacing:0px;word-spacing:0px;fill:#ff0000;fill-opacity:1;stroke:none;stroke-width:12.91183376"
     id="text1321-9" />
  <text
     x="-630.24548"
     y="931.68213"
     id="text3176-1" />
</svg>
