<?xml version="1.0" encoding="UTF-8" standalone="no"?>
<svg
   xmlns:dc="http://purl.org/dc/elements/1.1/"
   xmlns:cc="http://creativecommons.org/ns#"
   xmlns:rdf="http://www.w3.org/1999/02/22-rdf-syntax-ns#"
   xmlns:svg="http://www.w3.org/2000/svg"
   xmlns="http://www.w3.org/2000/svg"
   xmlns:sodipodi="http://sodipodi.sourceforge.net/DTD/sodipodi-0.dtd"
   xmlns:inkscape="http://www.inkscape.org/namespaces/inkscape"
   version="1.1"
   width="79.862663"
   height="132.28346"
   id="svg3206"
   viewBox="0 0 79.862659 132.28346"
   sodipodi:docname="S.svg"
   inkscape:version="0.92.4 (5da689c313, 2019-01-14)">
  <metadata
     id="metadata3212">
    <rdf:RDF>
      <cc:Work
         rdf:about="">
        <dc:format>image/svg+xml</dc:format>
        <dc:type
           rdf:resource="http://purl.org/dc/dcmitype/StillImage" />
        <dc:title></dc:title>
      </cc:Work>
    </rdf:RDF>
  </metadata>
  <defs
     id="defs3210" />
  <sodipodi:namedview
     pagecolor="#ffffff"
     bordercolor="#666666"
     borderopacity="1"
     objecttolerance="10"
     gridtolerance="10"
     guidetolerance="10"
     inkscape:pageopacity="0"
     inkscape:pageshadow="2"
     inkscape:window-width="1600"
     inkscape:window-height="838"
     id="namedview3208"
     showgrid="false"
     showguides="true"
     inkscape:zoom="0.80488811"
     inkscape:cx="222.57893"
     inkscape:cy="28.073583"
     inkscape:window-x="-8"
     inkscape:window-y="-8"
     inkscape:window-maximized="1"
     inkscape:current-layer="svg3206"
     inkscape:measure-start="1115.17,301.786"
     inkscape:measure-end="1114.69,275.584"
     inkscape:guide-bbox="true" />
  <g
     aria-label="S"
     transform="matrix(0.9648539,0,0,1.0144639,184.64444,-203.93415)"
     style="font-style:normal;font-variant:normal;font-weight:normal;font-stretch:normal;font-size:174.22303772px;line-height:1.25;font-family:'Arial Narrow Special G1';-inkscape-font-specification:'Arial Narrow Special G1';letter-spacing:0px;word-spacing:0px;fill:none;fill-opacity:1;stroke:#000000;stroke-width:1.34644389;stroke-miterlimit:4;stroke-dasharray:none;stroke-opacity:1"
     id="text1080">
    <path
       d="m -190.68365,288.47098 23.01773,-2.21417 c 14.413,-9.62954 0,0 14.413,-9.62954 -12.63542,-4.84281 -24.42857,-13.79641 -30.11472,-24.80715 -2.26853,-4.48035 -3.4028,-10.13755 -3.4028,-15.75216 0,-10.09495 3.26101,-18.34673 9.78304,-24.75532 6.52202,-6.4086 15.31257,-9.6129 26.37165,-9.6129 7.59957,0 14.23502,1.5029 19.90634,4.50871 5.72803,3.0058 10.15167,7.316 13.2709,12.93061 3.17594,5.61461 4.87734,12.22171 5.10419,19.82128 l -21.61258,2.04403 c -0.68056,-8.10999 -2.18417,-12.10842 -6.38095,-16.02163 -4.55063,-3.5246 -15.24125,-3.95771 -19.0567,0.35418 -8.4336,11.52528 -1.82442,22.14053 9.88562,27.51252 11.36232,4.75876 17.25827,7.20822 21.34162,9.24989 6.23845,3.17594 10.94565,7.37272 14.12159,12.59034 3.17594,5.1609 4.76391,11.34264 4.76391,18.54522 0,7.14587 -1.67304,13.66789 -5.01912,19.56607 -3.34608,5.84146 -7.91149,10.29345 -13.69624,13.35596 -5.72804,3.06252 -12.64706,4.59378 -20.75705,4.59378 -12.64705,0 -22.742,-3.79979 -30.28486,-11.39936 -7.48615,-7.59957 -11.371,-17.89303 -11.65457,-30.88036 z"
       style="font-style:normal;font-variant:normal;font-weight:normal;font-stretch:normal;font-family:'Arial Narrow Special G1';-inkscape-font-specification:'Arial Narrow Special G1';fill:none;stroke:#000000;stroke-width:1.34644389;stroke-miterlimit:4;stroke-dasharray:none;stroke-opacity:1"
       id="path1082"
       inkscape:connector-curvature="0"
       sodipodi:nodetypes="ccccscscccccccccsccscc" />
  </g>
  <g
     aria-label="8"
     style="font-style:normal;font-variant:normal;font-weight:normal;font-stretch:normal;font-size:155.11968994px;line-height:1.25;font-family:Arial;-inkscape-font-specification:Arial;letter-spacing:0px;word-spacing:0px;fill:none;fill-opacity:1;stroke:#0097ff;stroke-width:1.28181183;stroke-miterlimit:4;stroke-dasharray:none;stroke-opacity:1"
     id="text998"
     transform="matrix(1.0589545,0,0,1,-634.43497,-210.10913)" />
  <g
     aria-label="P"
     transform="matrix(0.9315906,0,0,1.0734329,-481.86681,-211.66232)"
     style="font-style:normal;font-variant:normal;font-weight:normal;font-stretch:normal;font-size:172.15777588px;line-height:1.25;font-family:'Arial Narrow Special G1';-inkscape-font-specification:'Arial Narrow Special G1';letter-spacing:0px;word-spacing:0px;fill:#ff0000;fill-opacity:1;stroke:none;stroke-width:12.91183376"
     id="text1321" />
  <text
     x="41.600716"
     y="474.4039"
     id="text3176" />
  <g
     aria-label="8"
     style="font-style:normal;font-variant:normal;font-weight:normal;font-stretch:normal;font-size:155.11968994px;line-height:1.25;font-family:Arial;-inkscape-font-specification:Arial;letter-spacing:0px;word-spacing:0px;fill:none;fill-opacity:1;stroke:#0097ff;stroke-width:1.28181183;stroke-miterlimit:4;stroke-dasharray:none;stroke-opacity:1"
     id="text998-7"
     transform="matrix(1.0589545,0,0,1,-630.83773,428.95688)" />
  <g
     aria-label="P"
     transform="matrix(0.9315906,0,0,1.0734329,-478.26958,427.40369)"
     style="font-style:normal;font-variant:normal;font-weight:normal;font-stretch:normal;font-size:172.15777588px;line-height:1.25;font-family:'Arial Narrow Special G1';-inkscape-font-specification:'Arial Narrow Special G1';letter-spacing:0px;word-spacing:0px;fill:#ff0000;fill-opacity:1;stroke:none;stroke-width:12.91183376"
     id="text1321-9" />
  <text
     x="45.197945"
     y="1113.47"
     id="text3176-1" />
</svg>
