<?xml version="1.0" encoding="UTF-8" standalone="no"?>
<svg
   xmlns:dc="http://purl.org/dc/elements/1.1/"
   xmlns:cc="http://creativecommons.org/ns#"
   xmlns:rdf="http://www.w3.org/1999/02/22-rdf-syntax-ns#"
   xmlns:svg="http://www.w3.org/2000/svg"
   xmlns="http://www.w3.org/2000/svg"
   xmlns:sodipodi="http://sodipodi.sourceforge.net/DTD/sodipodi-0.dtd"
   xmlns:inkscape="http://www.inkscape.org/namespaces/inkscape"
   version="1.1"
   x="0px"
   y="0px"
   viewBox="0 0 28 32"
   xml:space="preserve"
   id="svg20"
   sodipodi:docname="pdf-icon.svg"
   width="28"
   height="32"
   inkscape:version="0.92.4 (5da689c313, 2019-01-14)"><metadata
     id="metadata26"><rdf:RDF><cc:Work
         rdf:about=""><dc:format>image/svg+xml</dc:format><dc:type
           rdf:resource="http://purl.org/dc/dcmitype/StillImage" /><dc:title></dc:title></cc:Work></rdf:RDF></metadata><defs
     id="defs24" /><sodipodi:namedview
     pagecolor="#ffffff"
     bordercolor="#666666"
     borderopacity="1"
     objecttolerance="10"
     gridtolerance="10"
     guidetolerance="10"
     inkscape:pageopacity="0"
     inkscape:pageshadow="2"
     inkscape:window-width="1600"
     inkscape:window-height="838"
     id="namedview22"
     showgrid="false"
     inkscape:zoom="5.9"
     inkscape:cx="14"
     inkscape:cy="12"
     inkscape:window-x="-8"
     inkscape:window-y="-8"
     inkscape:window-maximized="1"
     inkscape:current-layer="g14" /><g
     id="g14"><g
       id="g12"
       style="fill:#606060;fill-opacity:1"><g
         id="g8"
         style="fill:#606060;fill-opacity:1"><path
           d="M 6.75,19.402 H 5.415 v 1.991 H 6.75 c 0.536,0 0.96,-0.472 0.96,-0.968 C 7.709,19.866 7.286,19.402 6.75,19.402 Z"
           id="path2"
           inkscape:connector-curvature="0"
           style="fill:#606060;fill-opacity:1" /><path
           d="m 12.123,19.442 h -1.327 v 3.582 h 1.327 c 2.159,0 2.254,-3.582 0,-3.582 z"
           id="path4"
           inkscape:connector-curvature="0"
           style="fill:#606060;fill-opacity:1" /><path
           d="M 23,15 H 1 c -0.55,0 -1,0.45 -1,1 v 10 c 0,0.55 0.45,1 1,1 h 22 c 0.551,0 1,-0.45 1,-1 V 16 c 0,-0.55 -0.449,-1 -1,-1 z M 6.75,22.393 H 5.415 v 1.056 C 5.415,23.801 5.191,24 4.903,24 4.639,24 4.36,23.801 4.36,23.448 v -4.501 c 0,-0.264 0.208,-0.553 0.543,-0.553 H 6.75 c 1.04,0 1.976,0.696 1.976,2.031 C 8.725,21.689 7.79,22.393 6.75,22.393 Z M 12.195,24 H 10.292 C 10.028,24 9.74,23.855 9.74,23.504 v -4.541 c 0,-0.288 0.288,-0.496 0.552,-0.496 h 1.831 c 3.654,0 3.574,5.533 0.072,5.533 z m 7.125,-4.494 h -2.328 v 1.271 h 2.039 c 0.289,0 0.576,0.288 0.576,0.568 0,0.264 -0.287,0.479 -0.576,0.479 h -2.039 v 1.679 c 0,0.28 -0.199,0.496 -0.479,0.496 -0.352,0 -0.568,-0.216 -0.568,-0.496 v -4.541 c 0,-0.288 0.217,-0.496 0.568,-0.496 h 2.807 c 0.352,0 0.559,0.208 0.559,0.496 0,0.257 -0.207,0.544 -0.559,0.544 z"
           id="path6"
           inkscape:connector-curvature="0"
           style="fill:#606060;fill-opacity:1" /></g><path
         d="M 27,7.586 20.414,1 C 19.836,0.42 18.82,0 18,0 H 7 C 5.346,0 4,1.346 4,3 v 10 c 0,0.553 0.447,1 1,1 0.553,0 1,-0.447 1,-1 V 3 C 6,2.449 6.448,2 7,2 h 9 c 1.105,0 2,0.896 2,2 V 7.75 C 18,8.988 19.014,10 20.25,10 H 24 c 1.105,0 2,0.896 2,2 v 17 c 0,0.551 -0.447,1 -1,1 H 7 C 6.448,30 6,29.551 6,29 6,28.447 5.553,28 5,28 c -0.553,0 -1,0.447 -1,1 0,1.654 1.346,3 3,3 h 18 c 1.654,0 3,-1.346 3,-3 V 10 C 28,9.181 27.58,8.165 27,7.586 Z"
         id="path10"
         inkscape:connector-curvature="0"
         style="fill:#606060;fill-opacity:1" /></g></g></svg>